<svg width="15" height="14" viewBox="0 0 15 14" fill="none" xmlns="http://www.w3.org/2000/svg">
<path d="M10.5644 1.59274C9.64108 0.746135 8.33515 0.146454 6.67824 0.146454C3.22845 0.146454 0.591309 2.95886 0.591309 6.6756C0.591309 10.3923 3.14624 13.2047 6.59603 13.2047C8.44266 13.2047 9.80234 12.3838 10.7257 11.2389L10.8616 12.961H14.0142V0.390175H10.7257L10.5644 1.59274ZM7.38338 9.94979C5.56204 9.94979 4.17707 8.52916 4.17707 6.67239C4.17707 4.78677 5.56204 3.39499 7.38338 3.39499C9.34068 3.39499 10.5897 4.76111 10.5897 6.67239C10.6181 8.55802 9.34068 9.94979 7.38338 9.94979Z" fill="#00AD8C"/>
</svg>

