<svg width="13" height="14" viewBox="0 0 13 14" fill="none" xmlns="http://www.w3.org/2000/svg">
<path d="M13 6.70125C13 2.93 10.5558 0.146454 6.7771 0.146454C2.94786 0.146454 0.256958 3.01338 0.256958 6.6756C0.256958 10.3635 3.16288 13.2047 7.13125 13.2047C9.98342 13.2047 11.5328 12.1657 12.2949 11.4827L10.8277 8.91398C10.2838 9.35011 9.33204 10.1967 7.51386 10.1967C5.55655 10.1967 4.17157 9.10318 3.76367 7.65689H12.9463C12.9463 7.65689 13 7.16304 13 6.70125ZM3.78896 5.36079C4.19687 3.80226 5.36366 2.98452 6.91307 2.98452C8.32651 2.98452 9.43955 3.94016 9.60398 5.36079H3.78896Z" fill="#021B51"/>
</svg>

