<svg width="15" height="24" viewBox="0 0 15 24" fill="none" xmlns="http://www.w3.org/2000/svg">
<path d="M14.6716 20.2048C13.8621 20.2048 13.1886 19.6211 13.0432 18.8515C13.0432 18.8451 13.04 18.8386 13.04 18.8322C13.0337 18.8034 13.0305 18.7745 13.0273 18.7456C13.0242 18.7007 13.021 18.6591 13.0179 18.6366V18.3897C13.0179 18.3897 13.0179 18.3897 13.0179 18.3865V13.0182C13.0179 9.49388 10.7096 7.14646 7.39257 7.14646C5.76095 7.14646 4.5657 7.72049 3.80681 8.51258V0.450562H0.246338V19.9546H3.80681V13.3998C3.80681 11.7323 4.89456 10.3661 6.68744 10.3661C8.31906 10.3661 9.45739 11.6232 9.45739 13.5089V18.5693H9.46056C9.48585 21.4458 11.81 23.7708 14.6779 23.7708C14.6811 23.7708 14.6843 23.7708 14.6874 23.7708V20.2048C14.6811 20.2048 14.6748 20.2048 14.6716 20.2048Z" fill="#00AD8C"/>
</svg>

