<svg width="149" height="74" viewBox="0 0 149 74" fill="none" xmlns="http://www.w3.org/2000/svg">
<rect y="10" width="4" height="64" rx="2" fill="#00AD8C"/>
<path d="M33.9646 40.1862C33.8853 40.1068 33.8853 39.9782 33.9647 39.8989L37.0978 36.7657L38.0035 35.86L36.7237 35.9126C34.8916 35.9879 33.5575 36.7264 32.6748 37.454C32.2345 37.8168 31.9059 38.1772 31.6815 38.4521C31.5979 38.5544 31.5287 38.6449 31.474 38.7188H26.4062H25.9062V39.2188V44.8438V45.3438H26.4062H31.4737C31.532 45.4224 31.6066 45.5196 31.6975 45.63C31.9337 45.9166 32.2802 46.2918 32.7441 46.6652C33.6748 47.4141 35.0804 48.1562 37 48.1562C38.9641 48.1562 40.8444 47.2952 42.1319 45.8309L42.3822 45.5461L42.1756 45.2282L38.9703 40.2975L38.6382 39.7865L38.2019 40.2121C37.6178 40.7819 36.8584 41.0677 36.097 41.0678L33.9646 40.1862ZM33.9646 40.1862C34.5523 40.7738 35.3233 41.0678 36.0969 41.0678L33.9646 40.1862ZM42.5805 38.131L42.7305 38.3125H42.966H48C48.2761 38.3125 48.5 38.5364 48.5 38.8125V45.25C48.5 45.5261 48.2761 45.75 48 45.75H42.966H42.7305L42.5805 45.9315C41.2149 47.5845 39.1521 48.5625 37 48.5625C34.8479 48.5625 32.7851 47.5845 31.4194 45.9315L31.2695 45.75H31.034H26C25.7239 45.75 25.5 45.5261 25.5 45.25V38.8125C25.5 38.5364 25.7239 38.3125 26 38.3125H31.034H31.2695L31.4194 38.131C32.7851 36.478 34.8479 35.5 37 35.5C39.1521 35.5 41.2149 36.478 42.5805 38.131ZM47.5938 45.3438H48.0938V44.8438V39.2187V38.7187H47.5938H42.5237C42.4859 38.6678 42.4412 38.6086 42.3895 38.5431C42.2197 38.3273 41.9763 38.0433 41.6518 37.7414C41.0025 37.1374 40.0272 36.4608 38.6677 36.1158L38.3921 36.0459L38.1911 36.2469L34.8343 39.6038L34.3338 40.1043L34.9728 40.4087C35.9416 40.8703 37.1393 40.7018 37.9422 39.8989C37.9422 39.8989 37.9422 39.8989 37.9422 39.8989L38.6683 39.1728L39.8062 40.3108L39.8063 40.3108C40.2984 40.8029 40.9552 41.075 41.6514 41.075C42.0515 41.075 42.4399 40.9851 42.7922 40.8136C42.9011 40.7606 43.0156 40.7372 43.1095 40.7419C43.1994 40.7464 43.253 40.7745 43.2865 40.808C43.3283 40.8498 43.3427 40.8989 43.3417 40.9326C43.3412 40.9483 43.3376 40.9579 43.335 40.9629C43.3329 40.9668 43.3289 40.9729 43.3173 40.9806C42.8287 41.306 42.2549 41.4813 41.6514 41.4813C41.497 41.4813 41.3444 41.4696 41.1945 41.447L40.0943 41.2811L40.7007 42.2139L42.5874 45.1163L42.7352 45.3438H43.0066H47.5938Z" stroke="#00AD8C"/>
<path d="M64.994 47V37.2H66.478L71.392 44.578V37.2H72.876V47H71.392L66.478 39.622V47H64.994ZM78.0571 47.168C77.3944 47.168 76.7971 47.0187 76.2651 46.72C75.7424 46.412 75.3271 45.9873 75.0191 45.446C74.7111 44.8953 74.5571 44.256 74.5571 43.528C74.5571 42.8 74.7111 42.1653 75.0191 41.624C75.3364 41.0733 75.7611 40.6487 76.2931 40.35C76.8251 40.042 77.4178 39.888 78.0711 39.888C78.7338 39.888 79.3264 40.042 79.8491 40.35C80.3811 40.6487 80.8011 41.0733 81.1091 41.624C81.4264 42.1653 81.5851 42.8 81.5851 43.528C81.5851 44.256 81.4264 44.8953 81.1091 45.446C80.8011 45.9873 80.3811 46.412 79.8491 46.72C79.3171 47.0187 78.7198 47.168 78.0571 47.168ZM78.0571 45.894C78.4118 45.894 78.7384 45.8053 79.0371 45.628C79.3451 45.4507 79.5924 45.1893 79.7791 44.844C79.9658 44.4893 80.0591 44.0507 80.0591 43.528C80.0591 43.0053 79.9658 42.5713 79.7791 42.226C79.6018 41.8713 79.3591 41.6053 79.0511 41.428C78.7524 41.2507 78.4258 41.162 78.0711 41.162C77.7164 41.162 77.3851 41.2507 77.0771 41.428C76.7784 41.6053 76.5358 41.8713 76.3491 42.226C76.1624 42.5713 76.0691 43.0053 76.0691 43.528C76.0691 44.0507 76.1624 44.4893 76.3491 44.844C76.5358 45.1893 76.7784 45.4507 77.0771 45.628C77.3758 45.8053 77.7024 45.894 78.0571 45.894ZM85.8285 47C85.1472 47 84.6058 46.8367 84.2045 46.51C83.8032 46.174 83.6025 45.5813 83.6025 44.732V41.302H82.4125V40.056H83.6025L83.7845 38.292H85.0865V40.056H87.0465V41.302H85.0865V44.732C85.0865 45.1147 85.1658 45.3807 85.3245 45.53C85.4925 45.67 85.7772 45.74 86.1785 45.74H86.9765V47H85.8285ZM90.9287 47.168C90.3407 47.168 89.8553 47.07 89.4727 46.874C89.09 46.678 88.8053 46.4213 88.6187 46.104C88.432 45.7773 88.3387 45.4227 88.3387 45.04C88.3387 44.368 88.6 43.836 89.1227 43.444C89.6453 43.052 90.392 42.856 91.3627 42.856H93.1827V42.73C93.1827 42.1887 93.0333 41.7827 92.7347 41.512C92.4453 41.2413 92.0673 41.106 91.6007 41.106C91.19 41.106 90.8307 41.2087 90.5227 41.414C90.224 41.61 90.042 41.904 89.9767 42.296H88.4927C88.5393 41.792 88.7073 41.3627 88.9967 41.008C89.2953 40.644 89.6687 40.3687 90.1167 40.182C90.574 39.986 91.0733 39.888 91.6147 39.888C92.5853 39.888 93.3367 40.1447 93.8687 40.658C94.4007 41.162 94.6667 41.8527 94.6667 42.73V47H93.3787L93.2527 45.81C93.0567 46.1927 92.772 46.5147 92.3987 46.776C92.0253 47.0373 91.5353 47.168 90.9287 47.168ZM91.2227 45.964C91.624 45.964 91.96 45.8707 92.2307 45.684C92.5107 45.488 92.7253 45.2313 92.8747 44.914C93.0333 44.5967 93.1313 44.2467 93.1687 43.864H91.5167C90.9287 43.864 90.5087 43.9667 90.2567 44.172C90.014 44.3773 89.8927 44.634 89.8927 44.942C89.8927 45.2593 90.0093 45.5113 90.2427 45.698C90.4853 45.8753 90.812 45.964 91.2227 45.964ZM99.169 47.168C98.2917 47.168 97.5683 46.9533 96.999 46.524C96.4297 46.0947 96.103 45.5253 96.019 44.816H97.517C97.5917 45.1333 97.769 45.4087 98.049 45.642C98.329 45.866 98.6977 45.978 99.155 45.978C99.603 45.978 99.9297 45.8847 100.135 45.698C100.34 45.5113 100.443 45.2967 100.443 45.054C100.443 44.6993 100.298 44.4613 100.009 44.34C99.729 44.2093 99.337 44.0927 98.833 43.99C98.441 43.906 98.049 43.794 97.657 43.654C97.2743 43.514 96.9523 43.318 96.691 43.066C96.439 42.8047 96.313 42.4547 96.313 42.016C96.313 41.4093 96.5463 40.9053 97.013 40.504C97.4797 40.0933 98.133 39.888 98.973 39.888C99.7477 39.888 100.373 40.0747 100.849 40.448C101.334 40.8213 101.619 41.3487 101.703 42.03H100.275C100.228 41.7313 100.088 41.498 99.855 41.33C99.631 41.162 99.3277 41.078 98.945 41.078C98.5717 41.078 98.2823 41.1573 98.077 41.316C97.8717 41.4653 97.769 41.6613 97.769 41.904C97.769 42.1467 97.909 42.338 98.189 42.478C98.4783 42.618 98.8563 42.744 99.323 42.856C99.7897 42.9587 100.219 43.08 100.611 43.22C101.012 43.3507 101.334 43.5467 101.577 43.808C101.82 44.0693 101.941 44.452 101.941 44.956C101.95 45.5907 101.703 46.118 101.199 46.538C100.704 46.958 100.028 47.168 99.169 47.168ZM107.438 47V41.302H106.444V40.056H107.438V39.048C107.438 38.292 107.625 37.7507 107.998 37.424C108.381 37.088 108.918 36.92 109.608 36.92H110.336V38.18H109.832C109.506 38.18 109.272 38.25 109.132 38.39C108.992 38.5207 108.922 38.7447 108.922 39.062V40.056H113.318V47H111.834V41.302H108.922V47H107.438ZM112.59 38.894C112.31 38.894 112.077 38.81 111.89 38.642C111.713 38.4647 111.624 38.2407 111.624 37.97C111.624 37.7087 111.713 37.494 111.89 37.326C112.077 37.158 112.31 37.074 112.59 37.074C112.87 37.074 113.099 37.158 113.276 37.326C113.463 37.494 113.556 37.7087 113.556 37.97C113.556 38.2407 113.463 38.4647 113.276 38.642C113.099 38.81 112.87 38.894 112.59 38.894ZM118.064 47.168C117.186 47.168 116.463 46.9533 115.894 46.524C115.324 46.0947 114.998 45.5253 114.914 44.816H116.412C116.486 45.1333 116.664 45.4087 116.944 45.642C117.224 45.866 117.592 45.978 118.05 45.978C118.498 45.978 118.824 45.8847 119.03 45.698C119.235 45.5113 119.338 45.2967 119.338 45.054C119.338 44.6993 119.193 44.4613 118.904 44.34C118.624 44.2093 118.232 44.0927 117.728 43.99C117.336 43.906 116.944 43.794 116.552 43.654C116.169 43.514 115.847 43.318 115.586 43.066C115.334 42.8047 115.208 42.4547 115.208 42.016C115.208 41.4093 115.441 40.9053 115.908 40.504C116.374 40.0933 117.028 39.888 117.868 39.888C118.642 39.888 119.268 40.0747 119.744 40.448C120.229 40.8213 120.514 41.3487 120.598 42.03H119.17C119.123 41.7313 118.983 41.498 118.75 41.33C118.526 41.162 118.222 41.078 117.84 41.078C117.466 41.078 117.177 41.1573 116.972 41.316C116.766 41.4653 116.664 41.6613 116.664 41.904C116.664 42.1467 116.804 42.338 117.084 42.478C117.373 42.618 117.751 42.744 118.218 42.856C118.684 42.9587 119.114 43.08 119.506 43.22C119.907 43.3507 120.229 43.5467 120.472 43.808C120.714 44.0693 120.836 44.452 120.836 44.956C120.845 45.5907 120.598 46.118 120.094 46.538C119.599 46.958 118.922 47.168 118.064 47.168ZM125.746 47.168C125.064 47.168 124.453 47.014 123.912 46.706C123.38 46.398 122.96 45.9733 122.652 45.432C122.353 44.8813 122.204 44.2467 122.204 43.528C122.204 42.8093 122.353 42.1793 122.652 41.638C122.96 41.0873 123.38 40.658 123.912 40.35C124.453 40.042 125.064 39.888 125.746 39.888C126.604 39.888 127.323 40.112 127.902 40.56C128.49 41.008 128.868 41.6147 129.036 42.38H127.482C127.388 41.9973 127.183 41.6987 126.866 41.484C126.548 41.2693 126.175 41.162 125.746 41.162C125.382 41.162 125.046 41.2553 124.738 41.442C124.43 41.6193 124.182 41.8853 123.996 42.24C123.809 42.5853 123.716 43.0147 123.716 43.528C123.716 44.0413 123.809 44.4753 123.996 44.83C124.182 45.1753 124.43 45.4413 124.738 45.628C125.046 45.8147 125.382 45.908 125.746 45.908C126.175 45.908 126.548 45.8007 126.866 45.586C127.183 45.3713 127.388 45.068 127.482 44.676H129.036C128.877 45.4227 128.504 46.0247 127.916 46.482C127.328 46.9393 126.604 47.168 125.746 47.168ZM132.997 47.168C132.409 47.168 131.924 47.07 131.541 46.874C131.158 46.678 130.874 46.4213 130.687 46.104C130.5 45.7773 130.407 45.4227 130.407 45.04C130.407 44.368 130.668 43.836 131.191 43.444C131.714 43.052 132.46 42.856 133.431 42.856H135.251V42.73C135.251 42.1887 135.102 41.7827 134.803 41.512C134.514 41.2413 134.136 41.106 133.669 41.106C133.258 41.106 132.899 41.2087 132.591 41.414C132.292 41.61 132.11 41.904 132.045 42.296H130.561C130.608 41.792 130.776 41.3627 131.065 41.008C131.364 40.644 131.737 40.3687 132.185 40.182C132.642 39.986 133.142 39.888 133.683 39.888C134.654 39.888 135.405 40.1447 135.937 40.658C136.469 41.162 136.735 41.8527 136.735 42.73V47H135.447L135.321 45.81C135.125 46.1927 134.84 46.5147 134.467 46.776C134.094 47.0373 133.604 47.168 132.997 47.168ZM133.291 45.964C133.692 45.964 134.028 45.8707 134.299 45.684C134.579 45.488 134.794 45.2313 134.943 44.914C135.102 44.5967 135.2 44.2467 135.237 43.864H133.585C132.997 43.864 132.577 43.9667 132.325 44.172C132.082 44.3773 131.961 44.634 131.961 44.942C131.961 45.2593 132.078 45.5113 132.311 45.698C132.554 45.8753 132.88 45.964 133.291 45.964ZM139.305 38.74C139.025 38.74 138.792 38.656 138.605 38.488C138.428 38.3107 138.339 38.0913 138.339 37.83C138.339 37.5687 138.428 37.354 138.605 37.186C138.792 37.0087 139.025 36.92 139.305 36.92C139.585 36.92 139.814 37.0087 139.991 37.186C140.178 37.354 140.271 37.5687 140.271 37.83C140.271 38.0913 140.178 38.3107 139.991 38.488C139.814 38.656 139.585 38.74 139.305 38.74ZM138.563 47V40.056H140.047V47H138.563ZM144.778 47.168C143.901 47.168 143.178 46.9533 142.608 46.524C142.039 46.0947 141.712 45.5253 141.628 44.816H143.126C143.201 45.1333 143.378 45.4087 143.658 45.642C143.938 45.866 144.307 45.978 144.764 45.978C145.212 45.978 145.539 45.8847 145.744 45.698C145.95 45.5113 146.052 45.2967 146.052 45.054C146.052 44.6993 145.908 44.4613 145.618 44.34C145.338 44.2093 144.946 44.0927 144.442 43.99C144.05 43.906 143.658 43.794 143.266 43.654C142.884 43.514 142.562 43.318 142.3 43.066C142.048 42.8047 141.922 42.4547 141.922 42.016C141.922 41.4093 142.156 40.9053 142.622 40.504C143.089 40.0933 143.742 39.888 144.582 39.888C145.357 39.888 145.982 40.0747 146.458 40.448C146.944 40.8213 147.228 41.3487 147.312 42.03H145.884C145.838 41.7313 145.698 41.498 145.464 41.33C145.24 41.162 144.937 41.078 144.554 41.078C144.181 41.078 143.892 41.1573 143.686 41.316C143.481 41.4653 143.378 41.6613 143.378 41.904C143.378 42.1467 143.518 42.338 143.798 42.478C144.088 42.618 144.466 42.744 144.932 42.856C145.399 42.9587 145.828 43.08 146.22 43.22C146.622 43.3507 146.944 43.5467 147.186 43.808C147.429 44.0693 147.55 44.452 147.55 44.956C147.56 45.5907 147.312 46.118 146.808 46.538C146.314 46.958 145.637 47.168 144.778 47.168Z" fill="#00AD8C"/>
</svg>

