<svg width="182" height="28" viewBox="0 0 182 28" fill="none" xmlns="http://www.w3.org/2000/svg">
<path d="M8.96463 12.1862C8.88532 12.1068 8.88533 11.9782 8.96465 11.8989L12.0978 8.76571L13.0035 7.85999L11.7237 7.91258C9.8916 7.98786 8.55749 8.72645 7.67478 9.45398C7.23453 9.81684 6.90594 10.1772 6.68146 10.4521C6.59785 10.5544 6.52872 10.6449 6.47398 10.7188H1.40625H0.90625V11.2188V16.8438V17.3438H1.40625H6.4737C6.53203 17.4224 6.60659 17.5196 6.69752 17.63C6.93366 17.9166 7.2802 18.2918 7.74415 18.6652C8.67479 19.4141 10.0804 20.1562 12 20.1562C13.9641 20.1562 15.8444 19.2952 17.1319 17.8309L17.3822 17.5461L17.1756 17.2282L13.9703 12.2975L13.6382 11.7865L13.2019 12.2121C12.6178 12.7819 11.8584 13.0677 11.097 13.0678L8.96463 12.1862ZM8.96463 12.1862C9.55225 12.7738 10.3233 13.0678 11.0969 13.0678L8.96463 12.1862ZM17.5805 10.131L17.7305 10.3125H17.966H23C23.2761 10.3125 23.5 10.5364 23.5 10.8125V17.25C23.5 17.5261 23.2761 17.75 23 17.75H17.966H17.7305L17.5805 17.9315C16.2149 19.5845 14.1521 20.5625 12 20.5625C9.84792 20.5625 7.78509 19.5845 6.41945 17.9315L6.26947 17.75H6.03398H1C0.723858 17.75 0.5 17.5261 0.5 17.25V10.8125C0.5 10.5364 0.723858 10.3125 1 10.3125H6.03398H6.26947L6.41945 10.131C7.78509 8.47799 9.84792 7.5 12 7.5C14.1521 7.5 16.2149 8.47799 17.5805 10.131ZM22.5938 17.3438H23.0938V16.8438V11.2187V10.7187H22.5938H17.5237C17.4859 10.6678 17.4412 10.6086 17.3895 10.5431C17.2197 10.3273 16.9763 10.0433 16.6518 9.74145C16.0025 9.1374 15.0272 8.46081 13.6677 8.11581L13.3921 8.04589L13.1911 8.2469L9.8343 11.6038L9.33382 12.1043L9.9728 12.4087C10.9416 12.8703 12.1393 12.7018 12.9422 11.8989C12.9422 11.8989 12.9422 11.8989 12.9422 11.8989L13.6683 11.1728L14.8062 12.3108L14.8063 12.3108C15.2984 12.8029 15.9552 13.075 16.6514 13.075C17.0515 13.075 17.4399 12.9851 17.7922 12.8136C17.9011 12.7606 18.0156 12.7372 18.1095 12.7419C18.1994 12.7464 18.253 12.7745 18.2865 12.808C18.3283 12.8498 18.3427 12.8989 18.3417 12.9326C18.3412 12.9483 18.3376 12.9579 18.335 12.9629C18.3329 12.9668 18.3289 12.9729 18.3173 12.9806C17.8287 13.306 17.2549 13.4813 16.6514 13.4813C16.497 13.4813 16.3444 13.4696 16.1945 13.447L15.0943 13.2811L15.7007 14.2139L17.5874 17.1163L17.7352 17.3438H18.0066H22.5938Z" stroke="#021B51"/>
<path d="M34.632 22V5.2H37.704L45.6 17.032V5.2H48.672V22H45.6L37.704 10.192V22H34.632ZM57.5689 22.288C56.4169 22.288 55.3769 22.024 54.4489 21.496C53.5369 20.968 52.8089 20.24 52.2649 19.312C51.7369 18.368 51.4729 17.28 51.4729 16.048C51.4729 14.816 51.7449 13.736 52.2889 12.808C52.8329 11.864 53.5609 11.128 54.4729 10.6C55.4009 10.072 56.4409 9.808 57.5929 9.808C58.7289 9.808 59.7529 10.072 60.6649 10.6C61.5929 11.128 62.3209 11.864 62.8489 12.808C63.3929 13.736 63.6649 14.816 63.6649 16.048C63.6649 17.28 63.3929 18.368 62.8489 19.312C62.3209 20.24 61.5929 20.968 60.6649 21.496C59.7369 22.024 58.7049 22.288 57.5689 22.288ZM57.5689 19.624C58.3689 19.624 59.0649 19.328 59.6569 18.736C60.2489 18.128 60.5449 17.232 60.5449 16.048C60.5449 14.864 60.2489 13.976 59.6569 13.384C59.0649 12.776 58.3769 12.472 57.5929 12.472C56.7769 12.472 56.0729 12.776 55.4809 13.384C54.9049 13.976 54.6169 14.864 54.6169 16.048C54.6169 17.232 54.9049 18.128 55.4809 18.736C56.0729 19.328 56.7689 19.624 57.5689 19.624ZM71.2468 22C69.9988 22 68.9988 21.696 68.2468 21.088C67.4948 20.48 67.1188 19.4 67.1188 17.848V12.664H65.0788V10.096H67.1188L67.4788 6.904H70.1908V10.096H73.4068V12.664H70.1908V17.872C70.1908 18.448 70.3108 18.848 70.5508 19.072C70.8068 19.28 71.2388 19.384 71.8468 19.384H73.3348V22H71.2468ZM80.1484 22.288C79.1244 22.288 78.2844 22.128 77.6284 21.808C76.9724 21.472 76.4844 21.032 76.1644 20.488C75.8444 19.944 75.6844 19.344 75.6844 18.688C75.6844 17.584 76.1164 16.688 76.9804 16C77.8444 15.312 79.1404 14.968 80.8684 14.968H83.8924V14.68C83.8924 13.864 83.6604 13.264 83.1964 12.88C82.7324 12.496 82.1564 12.304 81.4684 12.304C80.8444 12.304 80.3004 12.456 79.8364 12.76C79.3724 13.048 79.0844 13.48 78.9724 14.056H75.9724C76.0524 13.192 76.3404 12.44 76.8364 11.8C77.3484 11.16 78.0044 10.672 78.8044 10.336C79.6044 9.984 80.5004 9.808 81.4924 9.808C83.1884 9.808 84.5244 10.232 85.5004 11.08C86.4764 11.928 86.9644 13.128 86.9644 14.68V22H84.3484L84.0604 20.08C83.7084 20.72 83.2124 21.248 82.5724 21.664C81.9484 22.08 81.1404 22.288 80.1484 22.288ZM80.8444 19.888C81.7244 19.888 82.4044 19.6 82.8844 19.024C83.3804 18.448 83.6924 17.736 83.8204 16.888H81.2044C80.3884 16.888 79.8044 17.04 79.4524 17.344C79.1004 17.632 78.9244 17.992 78.9244 18.424C78.9244 18.888 79.1004 19.248 79.4524 19.504C79.8044 19.76 80.2684 19.888 80.8444 19.888ZM94.8159 22.288C93.7599 22.288 92.8319 22.12 92.0319 21.784C91.2319 21.432 90.5919 20.952 90.1119 20.344C89.6319 19.736 89.3439 19.032 89.2479 18.232H92.3439C92.4399 18.696 92.6959 19.096 93.1119 19.432C93.5439 19.752 94.0959 19.912 94.7679 19.912C95.4399 19.912 95.9279 19.776 96.2319 19.504C96.5519 19.232 96.7119 18.92 96.7119 18.568C96.7119 18.056 96.4879 17.712 96.0399 17.536C95.5919 17.344 94.9679 17.16 94.1679 16.984C93.6559 16.872 93.1359 16.736 92.6079 16.576C92.0799 16.416 91.5919 16.216 91.1439 15.976C90.7119 15.72 90.3599 15.4 90.0879 15.016C89.8159 14.616 89.6799 14.128 89.6799 13.552C89.6799 12.496 90.0959 11.608 90.9279 10.888C91.7759 10.168 92.9599 9.808 94.4799 9.808C95.8879 9.808 97.0079 10.136 97.8399 10.792C98.6879 11.448 99.1919 12.352 99.3519 13.504H96.4479C96.2719 12.624 95.6079 12.184 94.4559 12.184C93.8799 12.184 93.4319 12.296 93.1119 12.52C92.8079 12.744 92.6559 13.024 92.6559 13.36C92.6559 13.712 92.8879 13.992 93.3519 14.2C93.8159 14.408 94.4319 14.6 95.1999 14.776C96.0319 14.968 96.7919 15.184 97.4799 15.424C98.1839 15.648 98.7439 15.992 99.1599 16.456C99.5759 16.904 99.7839 17.552 99.7839 18.4C99.7999 19.136 99.6079 19.8 99.2079 20.392C98.8079 20.984 98.2319 21.448 97.4799 21.784C96.7279 22.12 95.8399 22.288 94.8159 22.288ZM108.776 22V12.664H107.144V10.096H108.776V8.704C108.776 7.264 109.136 6.24 109.856 5.632C110.592 5.024 111.584 4.72 112.832 4.72H114.152V7.336H113.312C112.784 7.336 112.408 7.44 112.184 7.648C111.96 7.856 111.848 8.208 111.848 8.704V10.096H119.528V22H116.456V12.664H111.848V22H108.776ZM118.016 8.392C117.456 8.392 116.992 8.224 116.624 7.888C116.272 7.552 116.096 7.128 116.096 6.616C116.096 6.104 116.272 5.688 116.624 5.368C116.992 5.032 117.456 4.864 118.016 4.864C118.576 4.864 119.032 5.032 119.384 5.368C119.752 5.688 119.936 6.104 119.936 6.616C119.936 7.128 119.752 7.552 119.384 7.888C119.032 8.224 118.576 8.392 118.016 8.392ZM127.699 22.288C126.643 22.288 125.715 22.12 124.915 21.784C124.115 21.432 123.475 20.952 122.995 20.344C122.515 19.736 122.227 19.032 122.131 18.232H125.227C125.323 18.696 125.579 19.096 125.995 19.432C126.427 19.752 126.979 19.912 127.651 19.912C128.323 19.912 128.811 19.776 129.115 19.504C129.435 19.232 129.595 18.92 129.595 18.568C129.595 18.056 129.371 17.712 128.923 17.536C128.475 17.344 127.851 17.16 127.051 16.984C126.539 16.872 126.019 16.736 125.491 16.576C124.963 16.416 124.475 16.216 124.027 15.976C123.595 15.72 123.243 15.4 122.971 15.016C122.699 14.616 122.563 14.128 122.563 13.552C122.563 12.496 122.979 11.608 123.811 10.888C124.659 10.168 125.843 9.808 127.363 9.808C128.771 9.808 129.891 10.136 130.723 10.792C131.571 11.448 132.075 12.352 132.235 13.504H129.331C129.155 12.624 128.491 12.184 127.339 12.184C126.763 12.184 126.315 12.296 125.995 12.52C125.691 12.744 125.539 13.024 125.539 13.36C125.539 13.712 125.771 13.992 126.235 14.2C126.699 14.408 127.315 14.6 128.083 14.776C128.915 14.968 129.675 15.184 130.363 15.424C131.067 15.648 131.627 15.992 132.043 16.456C132.459 16.904 132.667 17.552 132.667 18.4C132.683 19.136 132.491 19.8 132.091 20.392C131.691 20.984 131.115 21.448 130.363 21.784C129.611 22.12 128.723 22.288 127.699 22.288ZM141.22 22.288C140.004 22.288 138.932 22.024 138.004 21.496C137.076 20.968 136.34 20.232 135.796 19.288C135.268 18.344 135.004 17.264 135.004 16.048C135.004 14.832 135.268 13.752 135.796 12.808C136.34 11.864 137.076 11.128 138.004 10.6C138.932 10.072 140.004 9.808 141.22 9.808C142.74 9.808 144.02 10.208 145.06 11.008C146.1 11.792 146.764 12.88 147.052 14.272H143.812C143.652 13.696 143.332 13.248 142.852 12.928C142.388 12.592 141.836 12.424 141.196 12.424C140.348 12.424 139.628 12.744 139.036 13.384C138.444 14.024 138.148 14.912 138.148 16.048C138.148 17.184 138.444 18.072 139.036 18.712C139.628 19.352 140.348 19.672 141.196 19.672C141.836 19.672 142.388 19.512 142.852 19.192C143.332 18.872 143.652 18.416 143.812 17.824H147.052C146.764 19.168 146.1 20.248 145.06 21.064C144.02 21.88 142.74 22.288 141.22 22.288ZM153.883 22.288C152.859 22.288 152.019 22.128 151.363 21.808C150.707 21.472 150.219 21.032 149.899 20.488C149.579 19.944 149.419 19.344 149.419 18.688C149.419 17.584 149.851 16.688 150.715 16C151.579 15.312 152.875 14.968 154.603 14.968H157.627V14.68C157.627 13.864 157.395 13.264 156.931 12.88C156.467 12.496 155.891 12.304 155.203 12.304C154.579 12.304 154.035 12.456 153.571 12.76C153.107 13.048 152.819 13.48 152.707 14.056H149.707C149.787 13.192 150.075 12.44 150.571 11.8C151.083 11.16 151.739 10.672 152.539 10.336C153.339 9.984 154.235 9.808 155.227 9.808C156.923 9.808 158.259 10.232 159.235 11.08C160.211 11.928 160.699 13.128 160.699 14.68V22H158.083L157.795 20.08C157.443 20.72 156.947 21.248 156.307 21.664C155.683 22.08 154.875 22.288 153.883 22.288ZM154.579 19.888C155.459 19.888 156.139 19.6 156.619 19.024C157.115 18.448 157.427 17.736 157.555 16.888H154.939C154.123 16.888 153.539 17.04 153.187 17.344C152.835 17.632 152.659 17.992 152.659 18.424C152.659 18.888 152.835 19.248 153.187 19.504C153.539 19.76 154.003 19.888 154.579 19.888ZM165.286 8.248C164.726 8.248 164.262 8.08 163.894 7.744C163.542 7.408 163.366 6.984 163.366 6.472C163.366 5.96 163.542 5.544 163.894 5.224C164.262 4.888 164.726 4.72 165.286 4.72C165.846 4.72 166.302 4.888 166.654 5.224C167.022 5.544 167.206 5.96 167.206 6.472C167.206 6.984 167.022 7.408 166.654 7.744C166.302 8.08 165.846 8.248 165.286 8.248ZM163.75 22V10.096H166.822V22H163.75ZM174.949 22.288C173.893 22.288 172.965 22.12 172.165 21.784C171.365 21.432 170.725 20.952 170.245 20.344C169.765 19.736 169.477 19.032 169.381 18.232H172.477C172.573 18.696 172.829 19.096 173.245 19.432C173.677 19.752 174.229 19.912 174.901 19.912C175.573 19.912 176.061 19.776 176.365 19.504C176.685 19.232 176.845 18.92 176.845 18.568C176.845 18.056 176.621 17.712 176.173 17.536C175.725 17.344 175.101 17.16 174.301 16.984C173.789 16.872 173.269 16.736 172.741 16.576C172.213 16.416 171.725 16.216 171.277 15.976C170.845 15.72 170.493 15.4 170.221 15.016C169.949 14.616 169.813 14.128 169.813 13.552C169.813 12.496 170.229 11.608 171.061 10.888C171.909 10.168 173.093 9.808 174.613 9.808C176.021 9.808 177.141 10.136 177.973 10.792C178.821 11.448 179.325 12.352 179.485 13.504H176.581C176.405 12.624 175.741 12.184 174.589 12.184C174.013 12.184 173.565 12.296 173.245 12.52C172.941 12.744 172.789 13.024 172.789 13.36C172.789 13.712 173.021 13.992 173.485 14.2C173.949 14.408 174.565 14.6 175.333 14.776C176.165 14.968 176.925 15.184 177.613 15.424C178.317 15.648 178.877 15.992 179.293 16.456C179.709 16.904 179.917 17.552 179.917 18.4C179.933 19.136 179.741 19.8 179.341 20.392C178.941 20.984 178.365 21.448 177.613 21.784C176.861 22.12 175.973 22.288 174.949 22.288Z" fill="#021B51"/>
</svg>

