<svg width="30" height="21" viewBox="0 0 30 21" fill="none" xmlns="http://www.w3.org/2000/svg">
<path d="M29.5241 10.5473C29.404 10.8327 29.1321 11.0187 28.8285 11.0219C28.8253 11.0219 28.8253 11.0219 28.8253 11.0219H19.7819L11.9337 18.9813H9.80247L18.9408 9.71354C19.0831 9.57244 19.276 9.49227 19.4688 9.49227H27.0072L19.1558 1.52967H2.5772L10.6436 9.71354C10.9376 10.0118 10.9376 10.4992 10.6467 10.7975L2.5772 18.9813H9.79931C9.49575 18.9813 9.22382 19.1673 9.10366 19.4559C8.98666 19.7414 9.05307 20.0685 9.26809 20.2865L9.48627 20.5078H0.752697C0.449141 20.5078 0.174043 20.3218 0.0570473 20.0332C-0.0599484 19.7446 0.00645458 19.4175 0.224636 19.1994L9.04674 10.2523L0.224636 1.30519C0.00645458 1.09033 -0.0599484 0.76323 0.0570473 0.474614C0.177205 0.185997 0.449141 0 0.752697 0H19.4657C19.6617 0 19.8546 0.0801712 19.9969 0.221273L29.1415 9.49227L29.3597 9.71354C29.5747 9.93802 29.6411 10.2619 29.5241 10.5473Z" fill="#00AD8C"/>
</svg>

