<svg width="30" height="21" viewBox="0 0 30 21" fill="none" xmlns="http://www.w3.org/2000/svg">
<path d="M29.5741 20.5254C29.4539 20.814 29.1788 21 28.8753 21H10.1559C9.9599 21 9.76701 20.9198 9.62788 20.7787L0.489572 11.5109L0.271391 11.2896C0.0563717 11.0716 -0.0100314 10.7445 0.106964 10.4591C0.227122 10.1705 0.499058 9.98446 0.802614 9.98446H9.84606L17.6943 2.02185H19.8255C19.8286 2.02185 19.8286 2.02185 19.8286 2.02185L10.6903 11.2896C10.5386 11.4372 10.352 11.5109 10.1559 11.5109H2.62079L10.4721 19.4735H27.0539L18.9844 11.2896C18.8421 11.1453 18.7662 10.9529 18.7662 10.7477C18.7662 10.5425 18.8452 10.35 18.9844 10.2057L27.0539 2.02185H19.8286C20.1322 2.01865 20.4041 1.83265 20.5243 1.54724C20.6381 1.26183 20.5749 0.93794 20.3599 0.71346L20.1417 0.492188H28.8721C29.1756 0.492188 29.4507 0.678185 29.5709 0.963594C29.6879 1.25221 29.6215 1.57931 29.4065 1.80058L20.5844 10.7477L29.4065 19.6948C29.6215 19.9129 29.6879 20.24 29.5741 20.5254Z" fill="#021B51"/>
</svg>

