<svg width="12" height="14" viewBox="0 0 12 14" fill="none" xmlns="http://www.w3.org/2000/svg">
<path d="M6.21077 3.01338C7.59575 3.01338 8.92698 3.50403 10.04 4.21595L11.4535 1.56709C10.3404 0.800651 8.43685 0.146454 6.28982 0.146454C3.13726 0.146454 1.07245 1.70498 1.07245 4.10691C1.07245 6.59222 3.43766 7.49335 5.55623 8.01286C7.21314 8.39447 7.81078 8.69592 7.81078 9.35011C7.81078 10.0043 7.2669 10.3346 6.23607 10.3346C4.52541 10.3346 2.94754 9.68042 1.99893 8.9685L0.531738 11.6174C1.8345 12.5185 3.7096 13.2015 5.88509 13.2015C9.5246 13.2015 11.4535 11.534 11.4535 9.13205C11.4535 6.48319 9.30642 5.71675 7.27006 5.22611C5.39497 4.78997 4.74359 4.57191 4.74359 3.94337C4.74359 3.31162 5.31591 3.01338 6.21077 3.01338Z" fill="#00AD8C"/>
</svg>

